<svg width="39" height="45" viewBox="0 0 39 45" fill="none" xmlns="http://www.w3.org/2000/svg">
<path d="M18.718 45.0001C19.2975 45.0001 19.9993 44.7632 20.8371 44.2956L36.9211 35.098C38.5169 34.1794 39 33.3822 39 31.4683V12.9776C39 10.9843 38.2982 9.95514 37.026 9.95514C36.454 9.95514 35.7723 10.172 34.9762 10.6258L18.8707 19.865C17.2659 20.7987 16.764 21.6346 16.764 23.4946V41.9853C16.764 43.9296 17.438 45.0001 18.718 45.0001ZM19.524 42.0263C19.3346 42.0188 19.277 41.8904 19.277 41.6509L19.3742 23.4864C19.3742 22.8248 19.5894 22.4428 20.16 22.1244L35.9313 12.9586C36.0368 12.8937 36.1284 12.8813 36.2199 12.8951C36.3767 12.9027 36.4731 13.0124 36.4731 13.2706L36.4315 31.4827C36.4315 32.0815 36.2163 32.5263 35.6457 32.8585L19.8188 41.9628C19.6946 42.0277 19.603 42.0402 19.524 42.0263ZM9.89702 40.0083C10.1671 40.0083 10.4449 39.9317 10.7163 39.7445V18.4351C10.7163 17.7473 10.8495 17.5222 11.4389 17.199L29.9764 6.55984C29.9994 5.61824 29.349 4.95099 28.4298 4.95099C28.0265 4.95099 27.5815 5.07396 27.0963 5.33849L10.0864 15.0915C8.40737 16.0515 8.20327 16.3976 8.20327 18.3114V37.7193C8.20327 39.0752 8.90164 40.0083 9.89702 40.0083ZM1.6861 35.2769C1.9423 35.2769 2.22768 35.2002 2.49917 35.013V13.7037C2.49917 13.0635 2.665 12.7646 3.20778 12.4675L21.7454 1.84225C21.776 0.874411 21.0728 0.233398 20.2266 0.233398C19.8094 0.233398 19.3644 0.342537 18.8791 0.63471L1.86924 10.3739C0.190184 11.3477 0 11.6523 0 13.6V32.9878C0 34.319 0.613018 35.2769 1.6861 35.2769Z" fill="#10548F" fill-opacity="0.85"/>
</svg>
