<svg width="60" height="54" viewBox="0 0 60 54" fill="none" xmlns="http://www.w3.org/2000/svg">
<path d="M7.19678 48.9497H33.8909C33.3494 48.0015 32.9182 46.9934 32.6294 45.9273H6.98194C4.4004 45.9273 3.02247 44.5755 3.02247 41.9341V19.6004C3.02247 16.9758 4.4004 15.6072 6.98194 15.6072H41.3481C43.8843 15.6072 45.3245 16.9758 45.3245 19.6004V26.6096C45.9341 26.5515 46.3948 26.5254 46.9026 26.5254C47.3708 26.5254 47.8711 26.5515 48.3469 26.6021V11.8821C48.3469 7.18579 45.929 4.74512 41.1594 4.74512H7.19678C2.43482 4.74512 0 7.14624 0 11.8821V41.8128C0 46.5486 2.43482 48.9497 7.19678 48.9497ZM19.3135 24.2735H20.7539C21.5176 24.2735 21.7349 24.0899 21.7349 23.3338V21.9009C21.7349 21.1448 21.5176 20.9443 20.7539 20.9443H19.3135C18.5498 20.9443 18.3401 21.1448 18.3401 21.9009V23.3338C18.3401 24.0899 18.5498 24.2735 19.3135 24.2735ZM27.6099 24.2735H29.0259C29.7971 24.2735 30.0068 24.0899 30.0068 23.3338V21.9009C30.0068 21.1448 29.7971 20.9443 29.0259 20.9443H27.6099C26.8218 20.9443 26.6289 21.1448 26.6289 21.9009V23.3338C26.6289 24.0899 26.8218 24.2735 27.6099 24.2735ZM35.8818 24.2735H37.3223C38.0859 24.2735 38.2788 24.0899 38.2788 23.3338V21.9009C38.2788 21.1448 38.0859 20.9443 37.3223 20.9443H35.8818C35.1182 20.9443 34.9009 21.1448 34.9009 21.9009V23.3338C34.9009 24.0899 35.1182 24.2735 35.8818 24.2735ZM11.0415 32.4234H12.4819C13.2456 32.4234 13.446 32.2398 13.446 31.4837V30.0508C13.446 29.2947 13.2456 29.1111 12.4819 29.1111H11.0415C10.2778 29.1111 10.0605 29.2947 10.0605 30.0508V31.4837C10.0605 32.2398 10.2778 32.4234 11.0415 32.4234ZM19.3135 32.4234H20.7539C21.5176 32.4234 21.7349 32.2398 21.7349 31.4837V30.0508C21.7349 29.2947 21.5176 29.1111 20.7539 29.1111H19.3135C18.5498 29.1111 18.3401 29.2947 18.3401 30.0508V31.4837C18.3401 32.2398 18.5498 32.4234 19.3135 32.4234ZM27.6099 32.4234H29.0259C29.7971 32.4234 30.0068 32.2398 30.0068 31.4837V30.0508C30.0068 29.2947 29.7971 29.1111 29.0259 29.1111H27.6099C26.8218 29.1111 26.6289 29.2947 26.6289 30.0508V31.4837C26.6289 32.2398 26.8218 32.4234 27.6099 32.4234ZM11.0415 40.5901H12.4819C13.2456 40.5901 13.446 40.3897 13.446 39.6411V38.2007C13.446 37.4446 13.2456 37.261 12.4819 37.261H11.0415C10.2778 37.261 10.0605 37.4446 10.0605 38.2007V39.6411C10.0605 40.3897 10.2778 40.5901 11.0415 40.5901ZM19.3135 40.5901H20.7539C21.5176 40.5901 21.7349 40.3897 21.7349 39.6411V38.2007C21.7349 37.4446 21.5176 37.261 20.7539 37.261H19.3135C18.5498 37.261 18.3401 37.4446 18.3401 38.2007V39.6411C18.3401 40.3897 18.5498 40.5901 19.3135 40.5901ZM27.6099 40.5901H29.0259C29.7971 40.5901 30.0068 40.3897 30.0068 39.6411V38.2007C30.0068 37.4446 29.7971 37.261 29.0259 37.261H27.6099C26.8218 37.261 26.6289 37.4446 26.6289 38.2007V39.6411C26.6289 40.3897 26.8218 40.5901 27.6099 40.5901ZM46.8799 53.6304C53.4727 53.6304 59.0173 48.1438 59.0173 41.4929C59.0173 34.8252 53.5308 29.3555 46.8799 29.3555C40.2197 29.3555 34.7424 34.8496 34.7424 41.4929C34.7424 48.1775 40.2197 53.6304 46.8799 53.6304ZM40.9802 43.314C40.2393 43.314 39.6465 42.7212 39.6465 41.9819C39.6465 41.2822 40.2561 40.6895 40.9802 40.6895H45.6624V34.0923C45.6624 33.3926 46.2476 32.8242 46.9641 32.8242C47.7034 32.8242 48.2961 33.3926 48.2961 34.0923V41.9819C48.2961 42.7305 47.7126 43.314 46.9641 43.314H40.9802Z" fill="#10548F"/>
</svg>
