<svg width="49" height="49" viewBox="0 0 49 49" fill="none" xmlns="http://www.w3.org/2000/svg">
<path d="M24.4861 48.9722C37.9124 48.9722 48.9797 37.8879 48.9797 24.4861C48.9797 11.0674 37.8955 0 24.4692 0C11.0674 0 0 11.0674 0 24.4861C0 37.8879 11.0842 48.9722 24.4861 48.9722ZM24.4861 45.8057C12.6751 45.8057 3.18336 36.2971 3.18336 24.4861C3.18336 12.6751 12.6582 3.15894 24.4692 3.15894C36.2803 3.15894 45.8132 12.6751 45.8132 24.4861C45.8132 36.2971 36.2971 45.8057 24.4861 45.8057ZM15.2734 36.2022C15.2734 38.6257 16.7771 40.1184 19.2756 40.1184H29.7041C32.2026 40.1184 33.7063 38.6257 33.7063 36.2022V12.7776C33.7063 10.354 32.2026 8.86133 29.7041 8.86133H19.2756C16.7771 8.86133 15.2734 10.354 15.2734 12.7776V36.2022ZM17.2725 35.2212V13.7586H31.6997V35.2212H17.2725ZM24.5029 38.614C23.8647 38.614 23.3259 38.0903 23.3259 37.437C23.3259 36.7837 23.8647 36.2524 24.5029 36.2524C25.1394 36.2524 25.6538 36.7837 25.6538 37.437C25.6538 38.0903 25.1394 38.614 24.5029 38.614ZM21.8013 11.3962C21.8013 11.0376 22.0605 10.7952 22.4023 10.7952H26.5942C26.936 10.7952 27.1709 11.0376 27.1709 11.3962C27.1709 11.7305 26.936 11.9973 26.5942 11.9973H22.4023C22.0605 11.9973 21.8013 11.7305 21.8013 11.3962Z" fill="#10548F" fill-opacity="0.85"/>
</svg>
