<svg width="49" height="49" viewBox="0 0 49 49" fill="none" xmlns="http://www.w3.org/2000/svg">
<path d="M24.4861 48.9722C37.9124 48.9722 48.9797 37.8879 48.9797 24.4861C48.9797 11.0674 37.8955 0 24.4692 0C11.0674 0 0 11.0674 0 24.4861C0 37.8879 11.0842 48.9722 24.4861 48.9722ZM24.4861 45.8057C12.6751 45.8057 3.18336 36.2971 3.18336 24.4861C3.18336 12.6751 12.6582 3.15894 24.4692 3.15894C36.2803 3.15894 45.8132 12.6751 45.8132 24.4861C45.8132 36.2971 36.2971 45.8057 24.4861 45.8057ZM18.2415 30.3352C23.8543 35.9648 31.3323 39.7219 35.7275 35.3435C35.8682 35.1953 35.9524 35.0867 36.0518 34.9536C37.3489 33.5798 37.5889 32.0349 36.3394 30.959C35.5115 30.335 34.5498 29.6772 31.7666 27.7634C30.4944 26.8684 29.4985 26.9839 28.3167 28.1431L27.3023 29.1331C27.0261 29.4092 26.5681 29.3999 26.2356 29.197C25.3794 28.6995 23.8801 27.5747 22.4373 26.1318C21.0112 24.7058 19.8452 23.1543 19.3796 22.3486C19.2012 22.0422 19.1489 21.6482 19.4436 21.3384L20.4336 20.26C21.5852 19.0293 21.6931 18.0671 20.7813 16.7856L17.6875 12.3938C16.6091 10.8701 15.0442 11.5339 13.5674 12.5562C13.4377 12.6538 13.3401 12.759 13.2424 12.8567C8.84546 17.2368 12.606 24.6997 18.2415 30.3352Z" fill="#10548F"/>
</svg>
