<svg width="49" height="49" viewBox="0 0 49 49" fill="none" xmlns="http://www.w3.org/2000/svg">
<path d="M24.4861 48.9722C37.9124 48.9722 48.9797 37.8879 48.9797 24.4861C48.9797 11.0674 37.8955 0 24.4692 0C11.0674 0 0 11.0674 0 24.4861C0 37.8879 11.0842 48.9722 24.4861 48.9722ZM24.4861 45.8057C12.6751 45.8057 3.18336 36.2971 3.18336 24.4861C3.18336 12.6751 12.6582 3.15894 24.4692 3.15894C36.2803 3.15894 45.8132 12.6751 45.8132 24.4861C45.8132 36.2971 36.2971 45.8057 24.4861 45.8057ZM20.2415 21.1382H23.3518V23.3596H16.7185C16.0181 23.3596 15.5525 23.5625 15.1038 23.9548L12.6599 26.2876C11.7776 27.106 11.7625 27.9983 12.6751 28.8545L15.1038 31.1401C15.5525 31.5645 16.0349 31.7598 16.7185 31.7598H23.3518V36.7307H19.6812C19.085 36.7307 18.605 37.2107 18.605 37.8237C18.605 38.4443 19.085 38.9412 19.6812 38.9412H29.1992C29.8123 38.9412 30.3091 38.4443 30.3091 37.8237C30.3091 37.2107 29.8123 36.7307 29.1992 36.7307H25.5698V31.7598H28.6406C29.7166 31.7598 30.3757 31.1326 30.3757 30.0398V25.0703C30.3757 23.9775 29.7166 23.3596 28.6406 23.3596H25.5698V21.1382H32.1636C32.8472 21.1382 33.3372 20.9353 33.7783 20.5186L36.239 18.2178C37.1121 17.4087 37.1196 16.5164 36.2146 15.6433L33.7783 13.3333C33.3372 12.9334 32.864 12.738 32.1636 12.738H25.5698V10.2803C25.5698 9.68409 25.0654 9.17042 24.4524 9.17042C23.8242 9.17042 23.3518 9.69166 23.3518 10.2803V12.738H20.2415C19.1655 12.738 18.5064 13.356 18.5064 14.4656V19.4351C18.5064 20.4959 19.1655 21.1382 20.2415 21.1382Z" fill="#10548F"/>
</svg>
