<svg width="50" height="39" viewBox="0 0 50 39" fill="none" xmlns="http://www.w3.org/2000/svg">
<path d="M9.47804 11.1094C10.5618 11.1094 11.4306 10.2326 11.4306 9.16357C11.4306 8.07984 10.5618 7.21109 9.47804 7.21109C8.42379 7.21109 7.52558 8.09457 7.52558 9.16357C7.52558 10.2179 8.42379 11.1094 9.47804 11.1094ZM9.47804 17.8148C10.5618 17.8148 11.4306 16.9379 11.4306 15.8622C11.4306 14.7785 10.5618 13.9164 9.47804 13.9164C8.42379 13.9164 7.52558 14.7932 7.52558 15.8622C7.52558 16.9232 8.42379 17.8148 9.47804 17.8148ZM9.47804 24.5053C10.5618 24.5053 11.4306 23.6366 11.4306 22.5529C11.4306 21.4839 10.5618 20.615 9.47804 20.615C8.40906 20.615 7.52558 21.4985 7.52558 22.5529C7.52558 23.6366 8.40906 24.5053 9.47804 24.5053ZM9.47804 31.4184C10.5618 31.4184 11.4306 30.5349 11.4306 29.4659C11.4306 28.3821 10.5618 27.5052 9.47804 27.5052C8.42379 27.5052 7.52558 28.3969 7.52558 29.4659C7.52558 30.5202 8.42379 31.4184 9.47804 31.4184ZM16.3958 10.2078H41.681C42.304 10.2078 42.7548 9.75054 42.7548 9.16357C42.7548 8.55531 42.2893 8.08987 41.681 8.08987H16.3958C15.7876 8.08987 15.3221 8.55531 15.3221 9.16357C15.3221 9.75054 15.7728 10.2078 16.3958 10.2078ZM16.3958 16.9213H30.7923C31.3793 16.9213 31.8514 16.4558 31.8514 15.8622C31.8514 15.2753 31.3793 14.7885 30.7923 14.7885H16.3958C15.7876 14.7885 15.3221 15.2753 15.3221 15.8622C15.3221 16.4558 15.7876 16.9213 16.3958 16.9213ZM16.3958 23.6265H41.681C42.304 23.6265 42.7548 23.1692 42.7548 22.5529C42.7548 21.9593 42.304 21.5086 41.681 21.5086H16.3958C15.7728 21.5086 15.3221 21.9593 15.3221 22.5529C15.3221 23.1692 15.7728 23.6265 16.3958 23.6265ZM16.3958 30.5248H30.7923C31.3793 30.5248 31.8514 30.0594 31.8514 29.4659C31.8514 28.8642 31.394 28.4069 30.7923 28.4069H16.3958C15.7728 28.4069 15.3221 28.8642 15.3221 29.4659C15.3221 30.0594 15.7876 30.5248 16.3958 30.5248ZM6.29366 38.6574H43.6998C47.8854 38.6574 50 36.5378 50 32.4308V6.24136C50 2.13439 47.8854 0 43.6998 0H6.29366C2.12928 0 0 2.11454 0 6.24136V32.4308C0 36.5576 2.12928 38.6574 6.29366 38.6574ZM6.34299 36.0209C3.93659 36.0209 2.64318 34.7503 2.64318 32.2849V6.38718C2.64318 3.92186 3.93659 2.64318 6.34299 2.64318H43.657C46.0156 2.64318 47.3568 3.92186 47.3568 6.38718V32.2849C47.3568 34.7503 46.0156 36.0209 43.657 36.0209H6.34299Z" fill="#10548F" fill-opacity="0.85"/>
</svg>
